<?xml version="1.0" encoding="UTF-8"?>
<svg id="Layer_1" data-name="Layer 1" xmlns="http://www.w3.org/2000/svg" viewBox="0 0 450.23 124.94">
  <defs>
    <style>
      .cls-1 {
        fill: #fff;
      }

      .cls-2 {
        fill: #ecfff8;
      }

      .cls-3 {
        fill: #4d7298;
      }

      .cls-4 {
        fill: #e6af2e;
      }
    </style>
  </defs>
  <g>
    <path class="cls-1" d="m5.1,38.47h13.66v4.14H0V3.58h5.1v34.89Z"/>
    <path class="cls-1" d="m24.36,5.94c-.67-.67-1.01-1.49-1.01-2.46s.34-1.79,1.01-2.46,1.49-1.01,2.46-1.01,1.73.34,2.38,1.01c.65.67.98,1.49.98,2.46s-.33,1.79-.98,2.46c-.65.67-1.45,1.01-2.38,1.01s-1.79-.34-2.46-1.01Zm4.93,5.99v30.69h-5.1V11.93h5.1Z"/>
    <path class="cls-1" d="m57.59,13.16c2,1.16,3.48,2.61,4.45,4.37v-5.6h5.15v31.36c0,2.8-.6,5.29-1.79,7.48-1.2,2.18-2.9,3.89-5.12,5.12-2.22,1.23-4.81,1.85-7.76,1.85-4.03,0-7.39-.95-10.08-2.86-2.69-1.9-4.28-4.5-4.76-7.78h5.04c.56,1.87,1.72,3.37,3.47,4.51,1.75,1.14,3.86,1.71,6.33,1.71,2.8,0,5.09-.88,6.86-2.63,1.77-1.76,2.66-4.22,2.66-7.39v-6.44c-1.01,1.79-2.5,3.29-4.48,4.48-1.98,1.2-4.29,1.79-6.94,1.79s-5.2-.67-7.42-2.02c-2.22-1.34-3.97-3.23-5.24-5.66-1.27-2.43-1.9-5.19-1.9-8.29s.63-5.89,1.9-8.26c1.27-2.37,3.01-4.21,5.24-5.52,2.22-1.31,4.69-1.96,7.42-1.96s4.97.58,6.97,1.74Zm3.05,8.01c-.93-1.72-2.19-3.03-3.78-3.95-1.59-.91-3.33-1.37-5.24-1.37s-3.64.45-5.21,1.34-2.82,2.2-3.75,3.92c-.93,1.72-1.4,3.73-1.4,6.05s.47,4.4,1.4,6.13c.93,1.74,2.18,3.06,3.75,3.98,1.57.92,3.3,1.37,5.21,1.37s3.65-.46,5.24-1.37c1.59-.91,2.85-2.24,3.78-3.98.93-1.74,1.4-3.76,1.4-6.08s-.47-4.33-1.4-6.05Z"/>
    <path class="cls-1" d="m97.33,12.85c1.87.99,3.33,2.47,4.4,4.45,1.06,1.98,1.6,4.39,1.6,7.22v18.09h-5.04v-17.36c0-3.06-.77-5.4-2.3-7.03-1.53-1.62-3.62-2.44-6.27-2.44s-4.83.84-6.41,2.52c-1.59,1.68-2.38,4.13-2.38,7.34v16.97h-5.1V1.18h5.1v15.12c1.01-1.57,2.4-2.78,4.17-3.64,1.77-.86,3.76-1.29,5.96-1.29,2.31,0,4.4.5,6.27,1.48Z"/>
    <path class="cls-1" d="m117.88,16.13v18.09c0,1.49.32,2.55.95,3.16.63.62,1.74.92,3.3.92h3.75v4.31h-4.59c-2.84,0-4.97-.65-6.38-1.96-1.42-1.31-2.13-3.45-2.13-6.44v-18.09h-3.98v-4.2h3.98v-7.73h5.1v7.73h8.01v4.2h-8.01Z"/>
    <path class="cls-1" d="m152.09,38.47h13.66v4.14h-18.76V3.58h5.1v34.89Z"/>
    <path class="cls-1" d="m199.02,29.18h-24.53c.19,3.02,1.22,5.39,3.11,7.08,1.88,1.7,4.17,2.55,6.86,2.55,2.2,0,4.04-.51,5.52-1.54,1.47-1.03,2.51-2.4,3.11-4.12h5.49c-.82,2.95-2.46,5.35-4.93,7.2s-5.53,2.77-9.18,2.77c-2.91,0-5.52-.65-7.81-1.96-2.3-1.31-4.1-3.16-5.4-5.57-1.31-2.41-1.96-5.2-1.96-8.37s.63-5.95,1.9-8.34c1.27-2.39,3.05-4.23,5.35-5.52,2.3-1.29,4.94-1.93,7.92-1.93s5.49.64,7.73,1.9c2.24,1.27,3.97,3.02,5.18,5.24,1.21,2.22,1.82,4.73,1.82,7.53,0,.97-.06,2-.17,3.08Zm-6.38-9.16c-.86-1.4-2.03-2.46-3.5-3.19-1.48-.73-3.11-1.09-4.9-1.09-2.58,0-4.77.82-6.58,2.46-1.81,1.64-2.85,3.92-3.11,6.83h19.38c0-1.94-.43-3.61-1.29-5.01Z"/>
    <path class="cls-1" d="m205.91,18.9c1.27-2.37,3.01-4.21,5.24-5.52,2.22-1.31,4.69-1.96,7.42-1.96s5.02.58,7,1.74c1.98,1.16,3.45,2.61,4.42,4.37v-5.6h5.15v30.69h-5.15v-5.71c-1.01,1.79-2.51,3.28-4.51,4.45-2,1.18-4.32,1.76-6.97,1.76s-5.19-.67-7.39-2.02c-2.2-1.34-3.94-3.23-5.21-5.66-1.27-2.43-1.9-5.19-1.9-8.29s.63-5.89,1.9-8.26Zm22.68,2.27c-.93-1.72-2.19-3.03-3.78-3.95-1.59-.91-3.33-1.37-5.24-1.37s-3.64.45-5.21,1.34-2.82,2.2-3.75,3.92c-.93,1.72-1.4,3.73-1.4,6.05s.47,4.4,1.4,6.13c.93,1.74,2.18,3.06,3.75,3.98,1.57.92,3.3,1.37,5.21,1.37s3.65-.46,5.24-1.37c1.59-.91,2.85-2.24,3.78-3.98.93-1.74,1.4-3.76,1.4-6.08s-.47-4.33-1.4-6.05Z"/>
    <path class="cls-1" d="m260.9,42.62l-12.04-13.55v13.55h-5.1V1.18h5.1v24.36l11.82-13.61h7.11l-14.45,15.29,14.5,15.4h-6.94Z"/>
    <path class="cls-1" d="m277.14,41.92c-1.87-.8-3.34-1.92-4.42-3.36-1.08-1.44-1.68-3.09-1.79-4.96h5.26c.15,1.53.87,2.78,2.16,3.75,1.29.97,2.98,1.46,5.07,1.46,1.94,0,3.47-.43,4.59-1.29,1.12-.86,1.68-1.94,1.68-3.25s-.6-2.34-1.79-3c-1.2-.65-3.04-1.3-5.54-1.93-2.28-.6-4.13-1.2-5.57-1.82-1.44-.62-2.67-1.53-3.7-2.74-1.03-1.21-1.54-2.81-1.54-4.79,0-1.57.47-3,1.4-4.31.93-1.31,2.26-2.34,3.98-3.11,1.72-.76,3.68-1.15,5.88-1.15,3.4,0,6.14.86,8.23,2.58,2.09,1.72,3.21,4.07,3.36,7.06h-5.1c-.11-1.6-.76-2.89-1.93-3.86-1.18-.97-2.75-1.46-4.73-1.46-1.83,0-3.29.39-4.37,1.18-1.08.78-1.62,1.81-1.62,3.08,0,1.01.33,1.84.98,2.49.65.65,1.47,1.18,2.46,1.57.99.39,2.36.83,4.12,1.32,2.2.6,3.99,1.19,5.38,1.76,1.38.58,2.57,1.45,3.56,2.6.99,1.16,1.5,2.67,1.54,4.54,0,1.68-.47,3.19-1.4,4.54-.93,1.34-2.25,2.4-3.95,3.16-1.7.76-3.65,1.15-5.85,1.15-2.35,0-4.46-.4-6.33-1.2Z"/>
    <path class="cls-1" d="m22.76,90.3c-2.22,2.15-5.61,3.22-10.16,3.22h-7.5v16.3H0v-39.03h12.6c4.4,0,7.76,1.06,10.05,3.19s3.44,4.87,3.44,8.23-1.11,5.95-3.33,8.09Zm-3.89-2.83c1.34-1.23,2.02-2.99,2.02-5.26,0-4.82-2.76-7.22-8.29-7.22h-7.5v14.34h7.5c2.84,0,4.93-.62,6.27-1.85Z"/>
    <path class="cls-1" d="m53.93,80.05c1.87.99,3.33,2.47,4.4,4.45,1.06,1.98,1.6,4.39,1.6,7.22v18.09h-5.04v-17.36c0-3.06-.77-5.4-2.3-7.03-1.53-1.62-3.62-2.44-6.27-2.44s-4.83.84-6.41,2.52c-1.59,1.68-2.38,4.13-2.38,7.34v16.97h-5.1v-41.44h5.1v15.12c1.01-1.57,2.4-2.78,4.17-3.64,1.77-.86,3.76-1.29,5.96-1.29,2.31,0,4.4.5,6.27,1.48Z"/>
    <path class="cls-1" d="m73.84,108.36c-2.33-1.31-4.16-3.16-5.49-5.57-1.33-2.41-1.99-5.2-1.99-8.37s.68-5.91,2.04-8.32c1.36-2.41,3.22-4.26,5.57-5.54,2.35-1.29,4.98-1.93,7.9-1.93s5.54.64,7.9,1.93c2.35,1.29,4.21,3.13,5.57,5.52,1.36,2.39,2.04,5.17,2.04,8.34s-.7,5.96-2.1,8.37c-1.4,2.41-3.3,4.27-5.68,5.57-2.39,1.31-5.04,1.96-7.95,1.96s-5.48-.65-7.81-1.96Zm12.96-3.81c1.6-.86,2.9-2.15,3.89-3.86.99-1.72,1.48-3.81,1.48-6.27s-.49-4.55-1.46-6.27c-.97-1.72-2.24-3-3.81-3.84-1.57-.84-3.27-1.26-5.1-1.26s-3.58.42-5.12,1.26c-1.55.84-2.79,2.12-3.72,3.84-.93,1.72-1.4,3.81-1.4,6.27s.46,4.61,1.37,6.33c.91,1.72,2.14,3,3.67,3.84,1.53.84,3.21,1.26,5.04,1.26s3.55-.43,5.15-1.29Z"/>
    <path class="cls-1" d="m110.32,83.33v18.09c0,1.49.32,2.55.95,3.16.63.62,1.74.92,3.3.92h3.75v4.31h-4.59c-2.84,0-4.97-.65-6.38-1.96-1.42-1.31-2.13-3.45-2.13-6.44v-18.09h-3.98v-4.2h3.98v-7.73h5.1v7.73h8.01v4.2h-8.01Z"/>
    <path class="cls-1" d="m130.06,108.36c-2.33-1.31-4.16-3.16-5.49-5.57-1.33-2.41-1.99-5.2-1.99-8.37s.68-5.91,2.04-8.32c1.36-2.41,3.22-4.26,5.57-5.54,2.35-1.29,4.98-1.93,7.9-1.93s5.54.64,7.9,1.93c2.35,1.29,4.21,3.13,5.57,5.52,1.36,2.39,2.04,5.17,2.04,8.34s-.7,5.96-2.1,8.37c-1.4,2.41-3.3,4.27-5.68,5.57-2.39,1.31-5.04,1.96-7.95,1.96s-5.48-.65-7.81-1.96Zm12.96-3.81c1.6-.86,2.9-2.15,3.89-3.86.99-1.72,1.48-3.81,1.48-6.27s-.49-4.55-1.46-6.27c-.97-1.72-2.24-3-3.81-3.84-1.57-.84-3.27-1.26-5.1-1.26s-3.58.42-5.12,1.26c-1.55.84-2.79,2.12-3.72,3.84-.93,1.72-1.4,3.81-1.4,6.27s.46,4.61,1.37,6.33c.91,1.72,2.14,3,3.67,3.84,1.53.84,3.21,1.26,5.04,1.26s3.55-.43,5.15-1.29Z"/>
    <path class="cls-1" d="m179.96,80.36c2,1.16,3.48,2.61,4.45,4.37v-5.6h5.15v31.36c0,2.8-.6,5.29-1.79,7.48-1.2,2.18-2.9,3.89-5.12,5.12-2.22,1.23-4.81,1.85-7.76,1.85-4.03,0-7.39-.95-10.08-2.86-2.69-1.9-4.28-4.5-4.76-7.78h5.04c.56,1.87,1.72,3.37,3.47,4.51,1.75,1.14,3.86,1.71,6.33,1.71,2.8,0,5.09-.88,6.86-2.63,1.77-1.76,2.66-4.22,2.66-7.39v-6.44c-1.01,1.79-2.5,3.29-4.48,4.48-1.98,1.2-4.29,1.79-6.94,1.79s-5.2-.67-7.42-2.02c-2.22-1.34-3.97-3.23-5.24-5.66-1.27-2.43-1.9-5.19-1.9-8.29s.63-5.89,1.9-8.26c1.27-2.37,3.01-4.21,5.24-5.52,2.22-1.31,4.69-1.96,7.42-1.96s4.97.58,6.97,1.74Zm3.05,8.01c-.93-1.72-2.19-3.03-3.78-3.95-1.59-.91-3.33-1.37-5.24-1.37s-3.64.45-5.21,1.34-2.82,2.2-3.75,3.92c-.93,1.72-1.4,3.73-1.4,6.05s.47,4.4,1.4,6.13c.93,1.74,2.18,3.06,3.75,3.98,1.57.92,3.3,1.37,5.21,1.37s3.65-.46,5.24-1.37c1.59-.91,2.85-2.24,3.78-3.98.93-1.74,1.4-3.76,1.4-6.08s-.47-4.33-1.4-6.05Z"/>
    <path class="cls-1" d="m207.11,80.02c1.66-.97,3.69-1.46,6.08-1.46v5.26h-1.34c-5.71,0-8.57,3.1-8.57,9.3v16.69h-5.1v-30.69h5.1v4.98c.9-1.75,2.17-3.12,3.84-4.09Z"/>
    <path class="cls-1" d="m219.07,86.1c1.27-2.37,3.01-4.21,5.24-5.52,2.22-1.31,4.69-1.96,7.42-1.96s5.02.58,7,1.74c1.98,1.16,3.45,2.61,4.42,4.37v-5.6h5.15v30.69h-5.15v-5.71c-1.01,1.79-2.51,3.28-4.51,4.45-2,1.18-4.32,1.76-6.97,1.76s-5.19-.67-7.39-2.02c-2.2-1.34-3.94-3.23-5.21-5.66-1.27-2.43-1.9-5.19-1.9-8.29s.63-5.89,1.9-8.26Zm22.68,2.27c-.93-1.72-2.19-3.03-3.78-3.95-1.59-.91-3.33-1.37-5.24-1.37s-3.64.45-5.21,1.34-2.82,2.2-3.75,3.92c-.93,1.72-1.4,3.73-1.4,6.05s.47,4.4,1.4,6.13c.93,1.74,2.18,3.06,3.75,3.98,1.57.92,3.3,1.37,5.21,1.37s3.65-.46,5.24-1.37c1.59-.91,2.85-2.24,3.78-3.98.93-1.74,1.4-3.76,1.4-6.08s-.47-4.33-1.4-6.05Z"/>
    <path class="cls-1" d="m266.53,80.39c2-1.18,4.32-1.76,6.97-1.76s5.2.65,7.42,1.96c2.22,1.31,3.97,3.15,5.24,5.52,1.27,2.37,1.9,5.12,1.9,8.26s-.64,5.86-1.9,8.29c-1.27,2.43-3.02,4.31-5.24,5.66-2.22,1.34-4.7,2.02-7.42,2.02s-4.92-.59-6.92-1.76c-2-1.18-3.52-2.64-4.56-4.4v20.22h-5.1v-45.25h5.1v5.66c1.01-1.75,2.51-3.22,4.51-4.4Zm14.92,7.92c-.93-1.72-2.19-3.02-3.78-3.92s-3.33-1.34-5.24-1.34-3.59.46-5.18,1.37c-1.59.92-2.86,2.24-3.81,3.98s-1.43,3.74-1.43,6.02.48,4.34,1.43,6.08c.95,1.74,2.22,3.06,3.81,3.98,1.59.92,3.31,1.37,5.18,1.37s3.65-.46,5.24-1.37c1.59-.91,2.85-2.24,3.78-3.98.93-1.74,1.4-3.78,1.4-6.13s-.47-4.33-1.4-6.05Z"/>
    <path class="cls-1" d="m316.29,80.05c1.87.99,3.33,2.47,4.4,4.45,1.06,1.98,1.6,4.39,1.6,7.22v18.09h-5.04v-17.36c0-3.06-.77-5.4-2.3-7.03-1.53-1.62-3.62-2.44-6.27-2.44s-4.83.84-6.41,2.52c-1.59,1.68-2.38,4.13-2.38,7.34v16.97h-5.1v-41.44h5.1v15.12c1.01-1.57,2.4-2.78,4.17-3.64,1.77-.86,3.76-1.29,5.96-1.29,2.31,0,4.41.5,6.27,1.48Z"/>
    <path class="cls-1" d="m357.05,79.13l-18.48,45.14h-5.26l6.05-14.78-12.38-30.35h5.66l9.63,24.86,9.52-24.86h5.26Z"/>
  </g>
  <rect class="cls-4" x="383.35" y="0" width="15.58" height="124.94"/>
  <rect class="cls-2" x="409" y="0" width="15.58" height="124.94"/>
  <rect class="cls-3" x="434.65" y="0" width="15.58" height="124.94"/>
</svg>